HIERARCHY
ROOT hip
{
	OFFSET 0.000000 103.560692 0.219151
	CHANNELS 6 Xposition Yposition Zposition Zrotation Xrotation Yrotation
	JOINT pelvis
	{
		OFFSET 0.000000 1.955040 1.591925
		CHANNELS 3 Zrotation Xrotation Yrotation
		JOINT lThigh
		{
			OFFSET 8.341582 -7.629402 -0.646910
			CHANNELS 3 Zrotation Xrotation Yrotation
			JOINT lShin
			{
				OFFSET 2.185763 -45.093132 -0.705710
				CHANNELS 3 Zrotation Xrotation Yrotation
				JOINT lFoot
				{
					OFFSET 0.730976 -46.379768 -2.264282
					CHANNELS 3 Zrotation Xrotation Yrotation
					JOINT lToe
					{
						OFFSET 2.797621 -4.200020 10.742415
						CHANNELS 3 Zrotation Xrotation Yrotation
						JOINT lBigToe
						{
							OFFSET -2.433708 -0.269072 1.841711
							CHANNELS 3 Zrotation Xrotation Yrotation
							End Site
							{
								OFFSET -10.527346 -33.657166 -1.340707
							}
						}
					}
				}
			}
		}
		JOINT rThigh
		{
			OFFSET -8.341582 -7.629402 -0.646910
			CHANNELS 3 Zrotation Xrotation Yrotation
			JOINT rShin
			{
				OFFSET -2.185763 -45.093132 -0.705710
				CHANNELS 3 Zrotation Xrotation Yrotation
				JOINT rFoot
				{
					OFFSET -0.730976 -46.379768 -2.264282
					CHANNELS 3 Zrotation Xrotation Yrotation
					JOINT rToe
					{
						OFFSET -2.797621 -4.200019 10.742415
						CHANNELS 3 Zrotation Xrotation Yrotation
						JOINT rBigToe
						{
							OFFSET 2.433708 -0.269072 1.841711
							CHANNELS 3 Zrotation Xrotation Yrotation
							End Site
							{
								OFFSET 0.000000 24.298409 -0.425647
							}
						}
					}
				}
			}
		}
	}
	JOINT abdomen
	{
		OFFSET 0.000000 1.841293 -3.551421
		CHANNELS 3 Zrotation Xrotation Yrotation
		JOINT abdomen2
		{
			OFFSET 0.000000 5.439911 3.419600
			CHANNELS 3 Zrotation Xrotation Yrotation
			JOINT chest
			{
				OFFSET 0.000000 14.715073 -2.918270
				CHANNELS 3 Zrotation Xrotation Yrotation
				JOINT neck
				{
					OFFSET 0.000000 26.294655 -1.248052
					CHANNELS 3 Zrotation Xrotation Yrotation
					JOINT head
					{
						OFFSET 0.000000 8.807068 1.063695
						CHANNELS 3 Zrotation Xrotation Yrotation
						JOINT rEye
						{
							OFFSET -3.030866 6.632080 7.702687
							CHANNELS 3 Zrotation Xrotation Yrotation
							End Site
							{
								OFFSET 2.969555 -11.022598 8.626689
							}
						}
						JOINT lEye
						{
							OFFSET 3.030866 6.632080 7.702687
							CHANNELS 3 Zrotation Xrotation Yrotation
							End Site
							{
								OFFSET 0.000000 -15.881760 10.104412
							}
						}
						JOINT upperJaw
						{
							OFFSET 0.000000 1.922699 2.891887
							CHANNELS 3 Zrotation Xrotation Yrotation
							End Site
							{
								OFFSET 0.000000 -19.386169 10.230839
							}
						}
						JOINT lowerJaw
						{
							OFFSET 0.000000 1.857620 2.686640
							CHANNELS 3 Zrotation Xrotation Yrotation
							JOINT tongueBase
							{
								OFFSET 0.000000 -3.019135 2.746916
								CHANNELS 3 Zrotation Xrotation Yrotation
								JOINT tongue01
								{
									OFFSET 0.000000 0.664124 0.223355
									CHANNELS 3 Zrotation Xrotation Yrotation
									JOINT tongue02
									{
										OFFSET 0.000000 0.339737 0.715627
										CHANNELS 3 Zrotation Xrotation Yrotation
										JOINT tongue03
										{
											OFFSET 0.000000 0.123444 0.730634
											CHANNELS 3 Zrotation Xrotation Yrotation
											JOINT tongue04
											{
												OFFSET 0.000000 0.017212 0.737415
												CHANNELS 3 Zrotation Xrotation Yrotation
												JOINT tongue05
												{
													OFFSET 0.000000 -0.021011 0.632440
													CHANNELS 3 Zrotation Xrotation Yrotation
													JOINT tongueTip
													{
														OFFSET 0.000000 -0.014404 0.601796
														CHANNELS 3 Zrotation Xrotation Yrotation
														End Site
														{
															OFFSET -14.139406 -2.625778 0.472826
														}
													}
												}
											}
										}
									}
								}
							}
						}
					}
				}
				JOINT rCollar
				{
					OFFSET -2.109295 21.452370 3.768136
					CHANNELS 3 Zrotation Xrotation Yrotation
					JOINT rShldr
					{
						OFFSET -11.491621 -2.568573 -4.940255
						CHANNELS 3 Zrotation Xrotation Yrotation
						JOINT rForeArm
						{
							OFFSET -28.789030 -0.213806 2.098380
							CHANNELS 3 Zrotation Xrotation Yrotation
							JOINT rHand
							{
								OFFSET -22.260895 -0.869583 10.391586
								CHANNELS 3 Zrotation Xrotation Yrotation
								JOINT rThumb1
								{
									OFFSET -0.628075 0.137405 2.362409
									CHANNELS 3 Zrotation Xrotation Yrotation
									JOINT rThumb2
									{
										OFFSET 0.085205 -0.600235 3.826079
										CHANNELS 3 Zrotation Xrotation Yrotation
										JOINT rThumb3
										{
											OFFSET -1.255478 -0.879211 2.439162
											CHANNELS 3 Zrotation Xrotation Yrotation
											End Site
											{
												OFFSET -2.963715 0.538574 4.059553
											}
										}
									}
								}
								JOINT rCarpal1
								{
									OFFSET -0.855530 1.026047 1.621985
									CHANNELS 3 Zrotation Xrotation Yrotation
									JOINT rIndex1
									{
										OFFSET -3.951324 0.390884 3.873290
										CHANNELS 3 Zrotation Xrotation Yrotation
										JOINT rIndex2
										{
											OFFSET -3.071884 -1.259598 2.506104
											CHANNELS 3 Zrotation Xrotation Yrotation
											JOINT rIndex3
											{
												OFFSET -1.394112 -1.446640 1.203302
												CHANNELS 3 Zrotation Xrotation Yrotation
												End Site
												{
													OFFSET -3.392448 -1.258026 0.533405
												}
											}
										}
									}
									JOINT rMid1
									{
										OFFSET -5.422974 0.107910 2.002650
										CHANNELS 3 Zrotation Xrotation Yrotation
										JOINT rMid2
										{
											OFFSET -3.599533 -1.323776 2.090647
											CHANNELS 3 Zrotation Xrotation Yrotation
											JOINT rMid3
											{
												OFFSET -1.360191 -1.598495 1.068055
												CHANNELS 3 Zrotation Xrotation Yrotation
												End Site
												{
													OFFSET -4.087769 -0.460876 0.069540
												}
											}
										}
									}
								}
								JOINT rCarpal2
								{
									OFFSET -1.942749 0.556229 -0.337217
									CHANNELS 3 Zrotation Xrotation Yrotation
									JOINT rRing1
									{
										OFFSET -4.762787 -0.121170 2.349089
										CHANNELS 3 Zrotation Xrotation Yrotation
										JOINT rRing2
										{
											OFFSET -3.380348 -1.337097 1.356700
											CHANNELS 3 Zrotation Xrotation Yrotation
											JOINT rRing3
											{
												OFFSET -1.430290 -1.499649 0.914224
												CHANNELS 3 Zrotation Xrotation Yrotation
												End Site
												{
													OFFSET -1.783272 -2.215851 -0.391895
												}
											}
										}
									}
									JOINT rPinky1
									{
										OFFSET -5.232559 -1.313721 0.336493
										CHANNELS 3 Zrotation Xrotation Yrotation
										JOINT rPinky2
										{
											OFFSET -2.217606 -1.389603 0.800693
											CHANNELS 3 Zrotation Xrotation Yrotation
											JOINT rPinky3
											{
												OFFSET -0.886887 -1.462280 0.774199
												CHANNELS 3 Zrotation Xrotation Yrotation
												End Site
												{
													OFFSET 14.139406 -2.625778 0.472826
												}
											}
										}
									}
								}
							}
						}
					}
				}
				JOINT lCollar
				{
					OFFSET 2.109295 21.452370 3.768136
					CHANNELS 3 Zrotation Xrotation Yrotation
					JOINT lShldr
					{
						OFFSET 11.491621 -2.568573 -4.940255
						CHANNELS 3 Zrotation Xrotation Yrotation
						JOINT lForeArm
						{
							OFFSET 28.789030 -0.213806 2.098380
							CHANNELS 3 Zrotation Xrotation Yrotation
							JOINT lHand
							{
								OFFSET 22.260895 -0.869583 10.391586
								CHANNELS 3 Zrotation Xrotation Yrotation
								JOINT lThumb1
								{
									OFFSET 0.628075 0.137405 2.362409
									CHANNELS 3 Zrotation Xrotation Yrotation
									JOINT lThumb2
									{
										OFFSET -0.085205 -0.600235 3.826079
										CHANNELS 3 Zrotation Xrotation Yrotation
										JOINT lThumb3
										{
											OFFSET 1.255478 -0.879211 2.439162
											CHANNELS 3 Zrotation Xrotation Yrotation
											End Site
											{
												OFFSET 2.963715 0.538574 4.059553
											}
										}
									}
								}
								JOINT lCarpal1
								{
									OFFSET 0.855530 1.026047 1.621985
									CHANNELS 3 Zrotation Xrotation Yrotation
									JOINT lIndex1
									{
										OFFSET 3.951324 0.390884 3.873290
										CHANNELS 3 Zrotation Xrotation Yrotation
										JOINT lIndex2
										{
											OFFSET 3.071884 -1.259598 2.506104
											CHANNELS 3 Zrotation Xrotation Yrotation
											JOINT lIndex3
											{
												OFFSET 1.394112 -1.446640 1.203302
												CHANNELS 3 Zrotation Xrotation Yrotation
												End Site
												{
													OFFSET 3.392448 -1.258026 0.533405
												}
											}
										}
									}
									JOINT lMid1
									{
										OFFSET 5.422974 0.107910 2.002650
										CHANNELS 3 Zrotation Xrotation Yrotation
										JOINT lMid2
										{
											OFFSET 3.599533 -1.323776 2.090647
											CHANNELS 3 Zrotation Xrotation Yrotation
											JOINT lMid3
											{
												OFFSET 1.360191 -1.598495 1.068055
												CHANNELS 3 Zrotation Xrotation Yrotation
												End Site
												{
													OFFSET 4.087769 -0.460876 0.069540
												}
											}
										}
									}
								}
								JOINT lCarpal2
								{
									OFFSET 1.942749 0.556229 -0.337217
									CHANNELS 3 Zrotation Xrotation Yrotation
									JOINT lRing1
									{
										OFFSET 4.762787 -0.121170 2.349089
										CHANNELS 3 Zrotation Xrotation Yrotation
										JOINT lRing2
										{
											OFFSET 3.380348 -1.337097 1.356700
											CHANNELS 3 Zrotation Xrotation Yrotation
											JOINT lRing3
											{
												OFFSET 1.430290 -1.499649 0.914224
												CHANNELS 3 Zrotation Xrotation Yrotation
												End Site
												{
													OFFSET 1.783272 -2.215851 -0.391895
												}
											}
										}
									}
									JOINT lPinky1
									{
										OFFSET 5.232559 -1.313721 0.336493
										CHANNELS 3 Zrotation Xrotation Yrotation
										JOINT lPinky2
										{
											OFFSET 2.217606 -1.389603 0.800693
											CHANNELS 3 Zrotation Xrotation Yrotation
											JOINT lPinky3
											{
												OFFSET 0.886887 -1.462280 0.774199
												CHANNELS 3 Zrotation Xrotation Yrotation
												End Site
												{
													OFFSET -10.295957 -17.050110 17.461308
												}
											}
										}
									}
								}
							}
						}
					}
				}
				JOINT rPectoral
				{
					OFFSET -6.358840 6.360771 6.369920
					CHANNELS 3 Zrotation Xrotation Yrotation
					End Site
					{
						OFFSET 10.295957 -17.050110 17.461308
					}
				}
				JOINT lPectoral
				{
					OFFSET 6.358840 6.360771 6.369920
					CHANNELS 3 Zrotation Xrotation Yrotation
					End Site
					{
						OFFSET 10.295957 -17.050110 17.461308
					}
				}
			}
		}
	}
}
MOTION
Frames:	5
Frame Time:	0.0333333
0.000000 1.054437 0.000000 -0.792984 -3.545942 2.566871 0.000000 0.000000 0.000000 -3.701649 -0.360265 -3.143811 -0.606301 11.585117 -4.850721 9.535806 -20.230698 -8.886312 4.838871 -8.243439 1.623998 0.000000 0.000000 0.000000 -0.017536 -23.049425 0.533148 -1.876875 53.748466 -3.497344 -0.368233 -6.834541 0.747920 -4.587929 -9.410361 -1.544432 0.000000 0.000000 0.000000 7.061372 -7.360246 -3.433829 0.000000 0.000000 0.000000 -5.917996 4.328201 -1.401379 -0.035369 -10.793448 -0.833858 -4.727661 12.442970 0.660597 0.000000 0.000000 0.000000 0.000000 0.000000 0.000000 0.000000 0.000000 0.000000 0.000000 0.000000 0.000000 0.000000 0.000000 0.000000 0.000000 0.000000 0.000000 0.000000 0.000000 0.000000 0.000000 0.000000 0.000000 0.000000 0.000000 0.000000 0.000000 0.000000 0.000000 0.000000 0.000000 0.000000 7.864927 -0.530526 -6.945263 56.256432 24.309980 -4.944154 -0.636448 1.445135 -16.579763 1.390247 0.939682 -1.313613 -20.278101 15.997745 -11.245070 -5.405472 -14.231636 9.903103 -16.386185 20.674324 16.306753 0.000000 0.000000 0.000000 -10.344722 -8.555511 -17.047894 -7.797001 -4.833429 -1.844039 -11.439776 -8.836915 -2.100391 -8.640635 -3.320988 -7.187178 -0.594737 3.049747 -3.815813 0.465115 4.586578 -2.176589 0.000000 0.000000 0.000000 -4.053409 -6.935108 0.570711 16.383318 9.700345 -7.257548 1.274629 8.359100 -3.952725 -18.864351 -24.497574 -13.525259 48.465355 21.906361 -10.696066 34.311016 26.749933 -1.842245 -8.645298 -0.440781 6.238447 -58.023392 7.432350 0.628048 -2.203381 -10.207809 12.771510 -4.783716 1.966813 7.917951 15.319375 21.766415 8.847219 9.897357 -11.660407 7.278462 18.869974 24.455250 -9.597977 0.000000 0.000000 0.000000 11.420111 -8.962692 17.696444 7.742449 -6.475732 0.297233 7.669960 -5.979775 1.302682 9.657770 -3.689982 7.578338 1.672497 2.702245 3.958704 -3.523009 6.268773 1.440409 0.000000 0.000000 0.000000 5.501590 -6.679728 1.170101 -14.897585 10.505441 6.875091 -11.617700 10.916432 0.445627 21.079500 -24.272398 15.081807 -47.080284 22.724037 10.346928 -40.794605 22.741798 -2.183594 0.228797 -0.011898 -0.671899 -0.206991 -0.010648 0.607846 
-0.272578 1.172189 2.716690 -0.776810 -3.355370 3.016259 0.000000 0.000000 0.000000 -2.933016 3.983248 -2.602917 -1.275432 5.966468 -5.713956 9.545262 -19.755695 -9.068984 5.023629 -8.052789 1.578181 0.000000 0.000000 0.000000 -0.035366 -24.502888 0.520970 -0.765298 45.424286 -2.580143 -0.478908 -8.433805 1.085713 -8.059642 -6.552915 -0.944248 0.000000 0.000000 0.000000 4.536269 -6.190381 -4.938766 0.000000 0.000000 0.000000 -1.819308 4.869452 -3.347430 -1.654254 -11.015887 0.780111 -3.837607 11.870095 1.801048 0.000000 0.000000 0.000000 0.000000 0.000000 0.000000 0.000000 0.000000 0.000000 0.000000 0.000000 0.000000 0.000000 0.000000 0.000000 0.000000 0.000000 0.000000 0.000000 0.000000 0.000000 0.000000 0.000000 0.000000 0.000000 0.000000 0.000000 0.000000 0.000000 0.000000 0.000000 0.000000 0.000000 8.226077 -0.545772 -7.493506 57.546455 23.673027 -6.953716 -0.922464 1.207930 -17.134066 2.847917 1.937298 -1.923623 -20.278101 15.997745 -11.245070 -5.405472 -14.231636 9.903103 -16.386185 20.674324 16.306753 0.000000 0.000000 0.000000 -10.344722 -8.555511 -17.047894 -7.797001 -4.833429 -1.844039 -11.439776 -8.836915 -2.100391 -8.640635 -3.320988 -7.187178 -0.594737 3.049747 -3.815813 0.465115 4.586578 -2.176589 0.000000 0.000000 0.000000 -4.053409 -6.935108 0.570711 16.383318 9.700345 -7.257548 1.274629 8.359100 -3.952725 -18.864351 -24.497574 -13.525259 48.465355 21.906361 -10.696066 34.311016 26.749933 -1.842245 -8.287748 -0.244957 4.822968 -57.302425 8.799246 -4.818908 -0.923762 -10.535244 13.022575 -7.546525 3.903549 6.760123 15.319375 21.766415 8.847219 9.897357 -11.660407 7.278462 18.869974 24.455250 -9.597977 0.000000 0.000000 0.000000 11.420111 -8.962692 17.696444 7.742449 -6.475732 0.297233 7.669960 -5.979775 1.302682 9.657770 -3.689982 7.578338 1.672497 2.702245 3.958704 -3.523009 6.268773 1.440409 0.000000 0.000000 0.000000 5.501590 -6.679728 1.170101 -14.897585 10.505441 6.875091 -11.617700 10.916432 0.445627 21.079500 -24.272398 15.081807 -47.080284 22.724037 10.346928 -40.794605 22.741798 -2.183594 0.246935 -0.012956 -0.725182 -0.160633 -0.008072 0.471685 
-0.648629 1.064978 6.357004 -0.163135 -2.478604 4.041945 0.000000 0.000000 0.000000 -1.772562 9.856388 -1.850158 -3.116426 -3.229717 -6.947903 9.370790 -17.153496 -9.366372 5.174073 -8.733093 1.566126 0.000000 0.000000 0.000000 -0.728736 -26.223423 0.705885 0.717244 33.151775 -3.044479 0.636759 -7.080528 3.017638 -10.830586 -0.022999 -0.173595 0.000000 0.000000 0.000000 0.233269 -5.178128 -6.631629 0.000000 0.000000 0.000000 3.623443 5.016505 -5.671496 -2.542406 -11.811477 2.415231 -3.571691 12.249352 3.435168 0.000000 0.000000 0.000000 0.000000 0.000000 0.000000 0.000000 0.000000 0.000000 0.000000 0.000000 0.000000 0.000000 0.000000 0.000000 0.000000 0.000000 0.000000 0.000000 0.000000 0.000000 0.000000 0.000000 0.000000 0.000000 0.000000 0.000000 0.000000 0.000000 0.000000 0.000000 0.000000 0.000000 8.444571 -0.634770 -8.436315 58.968704 22.127180 -10.431789 -1.758417 0.061867 -16.875223 3.764586 2.559233 -2.451800 -20.278101 15.997745 -11.245070 -5.405472 -14.231636 9.903103 -16.386185 20.674324 16.306753 0.000000 0.000000 0.000000 -10.344722 -8.555511 -17.047894 -7.797001 -4.833429 -1.844039 -11.439776 -8.836915 -2.100391 -8.640635 -3.320988 -7.187178 -0.594737 3.049747 -3.815813 0.465115 4.586578 -2.176589 0.000000 0.000000 0.000000 -4.053409 -6.935108 0.570711 16.383318 9.700345 -7.257548 1.274629 8.359100 -3.952725 -18.864351 -24.497574 -13.525259 48.465355 21.906361 -10.696066 34.311016 26.749933 -1.842245 -7.741271 -0.011030 3.144744 -54.684883 11.913396 -12.048460 -0.171764 -12.427123 15.099974 -9.696094 5.787340 4.221767 15.319375 21.766415 8.847219 9.897357 -11.660407 7.278462 18.869974 24.455250 -9.597977 0.000000 0.000000 0.000000 11.420111 -8.962692 17.696444 7.742449 -6.475732 0.297233 7.669960 -5.979775 1.302682 9.657770 -3.689982 7.578338 1.672497 2.702245 3.958704 -3.523009 6.268773 1.440409 0.000000 0.000000 0.000000 5.501590 -6.679728 1.170101 -14.897585 10.505441 6.875091 -11.617700 10.916432 0.445627 21.079500 -24.272398 15.081807 -47.080284 22.724037 10.346928 -40.794605 22.741798 -2.183594 0.277705 -0.014790 -0.815577 -0.105540 -0.005154 0.309890 
-0.808892 0.609227 9.113121 0.494999 -1.231897 4.454032 0.000000 0.000000 0.000000 -1.737574 10.455313 -0.492507 -3.984363 -3.241531 -7.731955 9.274562 -19.559792 -9.195817 5.185569 -8.720984 1.574477 0.000000 0.000000 0.000000 -1.475905 -27.190180 -0.372188 1.287614 22.681154 -0.868552 1.562097 -4.795936 3.181567 -10.226632 1.426471 -0.155539 0.000000 0.000000 0.000000 -2.444053 -4.355670 -7.696372 0.000000 0.000000 0.000000 6.783849 4.749129 -6.988721 -3.835689 -12.420141 3.648852 -2.510618 12.225012 4.238537 0.000000 0.000000 0.000000 0.000000 0.000000 0.000000 0.000000 0.000000 0.000000 0.000000 0.000000 0.000000 0.000000 0.000000 0.000000 0.000000 0.000000 0.000000 0.000000 0.000000 0.000000 0.000000 0.000000 0.000000 0.000000 0.000000 0.000000 0.000000 0.000000 0.000000 0.000000 0.000000 0.000000 9.106037 -0.730666 -8.877608 59.326527 20.662865 -12.522831 -2.076696 -1.374801 -15.902407 4.013576 2.767787 -1.960893 -20.278101 15.997745 -11.245070 -5.405472 -14.231636 9.903103 -16.386185 20.674324 16.306753 0.000000 0.000000 0.000000 -10.344722 -8.555511 -17.047894 -7.797001 -4.833429 -1.844039 -11.439776 -8.836915 -2.100391 -8.640635 -3.320988 -7.187178 -0.594737 3.049747 -3.815813 0.465115 4.586578 -2.176589 0.000000 0.000000 0.000000 -4.053409 -6.935108 0.570711 16.383318 9.700345 -7.257548 1.274629 8.359100 -3.952725 -18.864351 -24.497574 -13.525259 48.465355 21.906361 -10.696066 34.311016 26.749933 -1.842245 -7.591312 0.170707 2.005615 -52.405964 13.960611 -17.625990 0.990751 -13.666598 16.348263 -11.473941 7.400243 1.636349 15.319375 21.766415 8.847219 9.897357 -11.660407 7.278462 18.869974 24.455250 -9.597977 0.000000 0.000000 0.000000 11.420111 -8.962692 17.696444 7.742449 -6.475732 0.297233 7.669960 -5.979775 1.302682 9.657770 -3.689982 7.578338 1.672497 2.702245 3.958704 -3.523009 6.268773 1.440409 0.000000 0.000000 0.000000 5.501590 -6.679728 1.170101 -14.897585 10.505441 6.875091 -11.617700 10.916432 0.445627 21.079500 -24.272398 15.081807 -47.080284 22.724037 10.346928 -40.794605 22.741798 -2.183594 0.293033 -0.015722 -0.860608 -0.068411 -0.003275 0.200862 
-0.851944 -0.034306 11.926705 1.316867 -0.481060 4.656780 0.000000 0.000000 0.000000 -1.891577 11.556347 -0.542348 -4.736954 -3.250220 -8.099283 9.106346 -21.728697 -8.807328 5.218356 -9.116741 1.571814 0.000000 0.000000 0.000000 -2.398586 -27.059193 0.475985 2.584775 12.081974 -0.492528 2.110762 -1.400987 2.180490 -10.316058 0.258356 -0.195876 0.000000 0.000000 0.000000 -4.586782 -2.925725 -8.775280 0.000000 0.000000 0.000000 8.679967 4.788088 -8.031732 -4.240758 -13.962517 4.783033 -1.791548 12.347243 5.305330 0.000000 0.000000 0.000000 0.000000 0.000000 0.000000 0.000000 0.000000 0.000000 0.000000 0.000000 0.000000 0.000000 0.000000 0.000000 0.000000 0.000000 0.000000 0.000000 0.000000 0.000000 0.000000 0.000000 0.000000 0.000000 0.000000 0.000000 0.000000 0.000000 0.000000 0.000000 0.000000 0.000000 9.996290 -0.846632 -9.113460 59.026039 19.854275 -13.871641 -2.552717 -2.820848 -14.667376 5.294583 3.444734 -1.723550 -20.278101 15.997745 -11.245070 -5.405472 -14.231636 9.903103 -16.386185 20.674324 16.306753 0.000000 0.000000 0.000000 -10.344722 -8.555511 -17.047894 -7.797001 -4.833429 -1.844039 -11.439776 -8.836915 -2.100391 -8.640635 -3.320988 -7.187178 -0.594737 3.049747 -3.815813 0.465115 4.586578 -2.176589 0.000000 0.000000 0.000000 -4.053409 -6.935108 0.570711 16.383318 9.700345 -7.257548 1.274629 8.359100 -3.952725 -18.864351 -24.497574 -13.525259 48.465355 21.906361 -10.696066 34.311016 26.749933 -1.842245 -6.944482 0.282122 1.270076 -50.654625 14.490305 -22.663443 1.766679 -14.506147 16.904541 -13.177833 8.439980 0.302100 15.319375 21.766415 8.847219 9.897357 -11.660407 7.278462 18.869974 24.455250 -9.597977 0.000000 0.000000 0.000000 11.420111 -8.962692 17.696444 7.742449 -6.475732 0.297233 7.669960 -5.979775 1.302682 9.657770 -3.689982 7.578338 1.672497 2.702245 3.958704 -3.523009 6.268773 1.440409 0.000000 0.000000 0.000000 5.501590 -6.679728 1.170101 -14.897585 10.505441 6.875091 -11.617700 10.916432 0.445627 21.079500 -24.272398 15.081807 -47.080284 22.724037 10.346928 -40.794605 22.741798 -2.183594 0.302264 -0.016289 -0.887731 -0.043802 -0.002070 0.128603 
